name rise30.2954peak35.7071fall66.7804.mot
datacolumns 19
datarows 23
range 14.47328300000000 14.50995200000000
endheader
time	ground_force1_vx	ground_force1_vy	ground_force1_vz	ground_force1_px	ground_force1_py	ground_force1_pz	ground_force2_vx	ground_force2_vy	ground_force2_vz	ground_force2_px	ground_force2_py	ground_force2_pz	ground_torque1_x	ground_torque1_y	ground_torque1_z	ground_torque2_x	ground_torque2_y	ground_torque2_z	
14.47328300000000	-39.20522800000000	745.81661899999995	56.68397800000000	0.09118400000000	0.00000000000000	0.14740600000000	-1.61638200000000	3.22797000000000	0.86461200000000	0.00000000000000	0.00000000000000	0.00000000000000	0.00000000000000	23.59252700000000	0.00000000000000	0.00000000000000	0.13793800000000	0.00000000000000	
14.47494600000000	-39.46098300000000	743.14124800000002	56.23969100000000	0.09044900000000	0.00000000000000	0.14729200000000	-2.54686000000000	6.79701300000000	1.40197900000000	0.00000000000000	0.00000000000000	0.00000000000000	0.00000000000000	23.48163100000000	0.00000000000000	0.00000000000000	0.23234400000000	0.00000000000000	
14.47661600000000	-39.73500100000000	740.41516799999999	55.78398000000000	0.08972100000000	0.00000000000000	0.14717400000000	-3.59050500000000	11.18938100000000	2.01350400000000	0.00000000000000	0.00000000000000	0.00000000000000	0.00000000000000	23.37540400000000	0.00000000000000	0.00000000000000	0.34152500000000	0.00000000000000	
14.47828200000000	-40.02793800000000	737.63797499999998	55.31717500000000	0.08900200000000	0.00000000000000	0.14705300000000	-4.71292300000000	16.38104700000000	2.68169300000000	0.00000000000000	0.00000000000000	0.00000000000000	0.00000000000000	23.27413300000000	0.00000000000000	0.00000000000000	0.46286600000000	0.00000000000000	
14.47995300000000	-40.34038400000000	734.80909899999995	54.83961100000000	0.08829100000000	0.00000000000000	0.14692800000000	-5.87179700000000	22.31429700000000	3.38436600000000	0.00000000000000	0.00000000000000	0.00000000000000	0.00000000000000	23.17808400000000	0.00000000000000	0.00000000000000	0.59290200000000	0.00000000000000	
14.48161200000000	-40.67285700000000	731.92780400000004	54.35162200000000	0.08759000000000	0.00000000000000	0.14679900000000	-7.01962700000000	28.90242700000000	4.09610000000000	0.25194900000000	0.00000000000000	-0.07351300000000	0.00000000000000	23.08749300000000	0.00000000000000	0.00000000000000	1.24351800000000	0.00000000000000	
14.48328100000000	-41.02579500000000	728.99318400000004	53.85354400000000	0.08689800000000	0.00000000000000	0.14666700000000	-8.10714100000000	36.03745400000000	4.79007600000000	0.26174300000000	0.00000000000000	-0.07429100000000	0.00000000000000	23.00256800000000	0.00000000000000	0.00000000000000	1.51385900000000	0.00000000000000	
14.48494800000000	-41.39955700000000	726.00416399999995	53.34571300000000	0.08621700000000	0.00000000000000	0.14653100000000	-9.08694600000000	43.59980400000000	5.44008600000000	0.27027700000000	0.00000000000000	-0.07495700000000	0.00000000000000	22.92349000000000	0.00000000000000	0.00000000000000	1.78220500000000	0.00000000000000	
14.48661800000000	-41.79441500000000	722.95950000000005	52.82846200000000	0.08554600000000	0.00000000000000	0.14639100000000	-9.91692700000000	51.46858200000000	6.02242800000000	0.27780100000000	0.00000000000000	-0.07553300000000	0.00000000000000	22.85040800000000	0.00000000000000	0.00000000000000	2.03931400000000	0.00000000000000	
14.48828200000000	-42.21055100000000	719.85778100000005	52.30212600000000	0.08488700000000	0.00000000000000	0.14624800000000	-10.56295600000000	59.53102700000000	6.51745900000000	0.28450000000000	0.00000000000000	-0.07603900000000	0.00000000000000	22.78343700000000	0.00000000000000	0.00000000000000	2.27693200000000	0.00000000000000	
14.48994600000000	-42.64805200000000	716.69742699999995	51.76703200000000	0.08423900000000	0.00000000000000	0.14610100000000	-11.00066600000000	67.69012900000000	6.91063200000000	0.29051700000000	0.00000000000000	-0.07648600000000	0.00000000000000	22.72266500000000	0.00000000000000	0.00000000000000	2.48827900000000	0.00000000000000	
14.49161200000000	-43.10691000000000	713.47670100000005	51.22350700000000	0.08360400000000	0.00000000000000	0.14595000000000	-11.21618200000000	75.86984300000000	7.19298600000000	0.29595900000000	0.00000000000000	-0.07688500000000	0.00000000000000	22.66814100000000	0.00000000000000	0.00000000000000	2.66835200000000	0.00000000000000	
14.49327800000000	-43.58701500000000	710.19370500000002	50.67187400000000	0.08298100000000	0.00000000000000	0.14579600000000	-11.20590400000000	84.01775000000001	7.36109900000000	0.30091500000000	0.00000000000000	-0.07724400000000	0.00000000000000	22.61988400000000	0.00000000000000	0.00000000000000	2.81404300000000	0.00000000000000	
14.49494800000000	-44.08815300000000	706.84639000000004	50.11244900000000	0.08237100000000	0.00000000000000	0.14563900000000	-10.97547900000000	92.10532000000001	7.41660100000000	0.30545100000000	0.00000000000000	-0.07757000000000	0.00000000000000	22.57787600000000	0.00000000000000	0.00000000000000	2.92407900000000	0.00000000000000	
14.49661800000000	-44.61000500000000	703.43256099999996	49.54554500000000	0.08177500000000	0.00000000000000	0.14547900000000	-10.53819300000000	100.12615599999999	7.36534800000000	0.30962500000000	0.00000000000000	-0.07786700000000	0.00000000000000	22.54206300000000	0.00000000000000	0.00000000000000	2.99882900000000	0.00000000000000	
14.49828400000000	-45.15214300000000	699.94988599999999	48.97146700000000	0.08119300000000	0.00000000000000	0.14531500000000	-9.91301200000000	108.09271900000000	7.21639700000000	0.31348100000000	0.00000000000000	-0.07813900000000	0.00000000000000	22.51235700000000	0.00000000000000	0.00000000000000	3.03999900000000	0.00000000000000	
14.49995300000000	-45.71402800000000	696.39590199999998	48.39051700000000	0.08062500000000	0.00000000000000	0.14514700000000	-9.12249300000000	116.03206500000000	6.98088900000000	0.31705700000000	0.00000000000000	-0.07839000000000	0.00000000000000	22.48863400000000	0.00000000000000	0.00000000000000	3.05027600000000	0.00000000000000	
14.50161800000000	-46.29501000000000	692.76802499999997	47.80298900000000	0.08007200000000	0.00000000000000	0.14497700000000	-8.19076500000000	123.98112000000000	6.67095400000000	0.32038500000000	0.00000000000000	-0.07862300000000	0.00000000000000	22.47073400000000	0.00000000000000	0.00000000000000	3.03295000000000	0.00000000000000	
14.50328500000000	-46.89432600000000	689.06355900000005	47.20916900000000	0.07953400000000	0.00000000000000	0.14480300000000	-7.14172300000000	131.98196200000001	6.29872700000000	0.32349100000000	0.00000000000000	-0.07883900000000	0.00000000000000	22.45845800000000	0.00000000000000	0.00000000000000	2.99155500000000	0.00000000000000	
14.50495000000000	-47.51110000000000	685.27971100000002	46.60933900000000	0.07901000000000	0.00000000000000	0.14462600000000	-5.99755300000000	140.07748300000000	5.87552400000000	0.32639700000000	0.00000000000000	-0.07904100000000	0.00000000000000	22.45157500000000	0.00000000000000	0.00000000000000	2.92955100000000	0.00000000000000	
14.50661400000000	-48.14434100000000	681.41359499999999	46.00377400000000	0.07850300000000	0.00000000000000	0.14444700000000	-4.77763400000000	148.30770500000000	5.41122600000000	0.32912300000000	0.00000000000000	-0.07923000000000	0.00000000000000	22.44981600000000	0.00000000000000	0.00000000000000	2.85006700000000	0.00000000000000	
14.50828100000000	-48.79294500000000	677.46225300000003	45.39274200000000	0.07801100000000	0.00000000000000	0.14426400000000	-3.49785200000000	156.70692600000001	4.91387600000000	0.33168400000000	0.00000000000000	-0.07940800000000	0.00000000000000	22.45287800000000	0.00000000000000	0.00000000000000	2.75571800000000	0.00000000000000	
14.50995200000000	-49.45569700000000	673.42265999999995	44.77650200000000	0.07753500000000	0.00000000000000	0.14407800000000	-2.17029000000000	165.30175700000001	4.38948800000000	0.33409500000000	0.00000000000000	-0.07957500000000	0.00000000000000	22.46042300000000	0.00000000000000	0.00000000000000	2.64849600000000	0.00000000000000	
